# Blender v2.78 (sub 5) OBJ File: ''
# www.blender.org
v 0.109031 -0.163138 -0.035878
v 0.112956 -0.150787 -0.026987
v 0.117362 -0.159113 -0.027362
v -0.047081 0.142512 -0.018328
v 0.076990 -0.075613 -0.018328
v 0.070063 -0.078828 -0.028318
v -0.082295 0.218114 -0.010327
v -1.662475 3.184067 0.115214
v -1.654146 3.188091 0.123727
v 0.017215 -0.108207 0.002904
v -0.099646 0.113849 0.000343
v 0.017498 -0.107490 -0.009647
v 0.020750 -0.106877 0.014899
v -0.089466 0.117678 0.034880
v -0.096393 0.114463 0.024889
v 0.021564 -0.104815 -0.021242
v -0.088219 0.120837 -0.020491
v 0.028924 -0.100503 -0.030481
v -0.075335 0.220732 0.013289
v -1.648836 3.190397 0.134885
v -1.647185 3.190709 0.147343
v -0.078453 0.126266 -0.026260
v -0.112076 0.202981 -0.024264
v -1.694463 3.167214 0.113532
v -1.683927 3.172959 0.109790
v 0.118268 -0.148480 -0.015824
v 0.122674 -0.156806 -0.016200
v -0.100967 0.208835 -0.023680
v -0.090624 0.214090 -0.018840
v -0.102569 0.204775 0.047478
v -1.663884 3.180497 0.177789
v -1.674420 3.174752 0.181532
v -0.131304 0.192292 -0.012904
v -0.122612 0.197236 -0.020522
v -1.672818 3.178812 0.110374
v 0.126151 -0.163213 -0.004080
v 0.122108 -0.158222 0.008517
v 0.124036 -0.164861 0.007661
v 0.094664 -0.186121 -0.036280
v 0.105800 -0.186963 -0.030836
v 0.098041 -0.191052 -0.031244
v 0.111604 -0.179749 0.021192
v 0.104681 -0.189799 0.018862
v 0.112039 -0.185787 0.016249
v 0.111994 -0.194766 -0.003463
v 0.112765 -0.193426 0.001493
v 0.110715 -0.195549 -0.001131
v 0.105817 -0.198846 -0.006571
v 0.105008 -0.199212 -0.002622
v 0.103853 -0.199798 -0.003162
v 0.108396 -0.197364 -0.003825
v 0.107425 -0.197916 -0.002974
v 0.120217 -0.185593 -0.005491
v 0.122549 -0.178871 -0.013717
v 0.123702 -0.178654 -0.005016
v 0.066439 -0.195208 0.004632
v 0.060337 -0.190208 -0.007102
v 0.064858 -0.195506 -0.007303
v 0.099904 -0.201245 -0.001699
v 0.102923 -0.200247 -0.004113
v 0.108798 -0.196640 0.000549
v 0.106428 -0.198104 -0.010503
v 0.107583 -0.197517 -0.009963
v 0.123852 -0.172573 0.005817
v 0.122160 -0.179857 0.003543
v 0.125718 -0.171118 -0.004541
v 0.118951 -0.175571 0.014754
v 0.104010 -0.199400 -0.010151
v 0.100135 -0.200660 -0.011944
v 0.102052 -0.199569 -0.013625
v 0.094278 -0.160071 -0.040344
v 0.087571 -0.174251 -0.041304
v 0.083165 -0.165925 -0.040929
v 0.104624 -0.154812 -0.035502
v 0.098684 -0.168397 -0.040720
v -0.137660 0.187336 0.022382
v -1.704201 3.159619 0.167595
v -1.709511 3.157313 0.156437
v 0.068816 -0.081988 0.027053
v -0.058094 0.133923 0.042813
v 0.059050 -0.087416 0.032822
v 0.114655 -0.192269 -0.001954
v 0.119061 -0.186493 0.000924
v -0.077542 0.219010 0.025544
v -1.649393 3.188987 0.159598
v 0.048056 -0.093307 0.034426
v -0.079983 0.122391 0.041662
v 0.037161 -0.098949 0.031671
v -0.113679 0.198921 0.046893
v -1.695872 3.163643 0.176107
v -0.124022 0.193666 0.042053
v -1.711162 3.157001 0.143979
v -0.139311 0.187024 0.009925
v 0.076176 -0.077675 0.017813
v -0.048328 0.139352 0.037043
v 0.099504 -0.200530 0.003428
v 0.090371 -0.201866 0.005111
v 0.096789 -0.201842 0.000653
v -0.069087 0.128033 0.044417
v -0.099928 0.113133 0.012895
v 0.071215 -0.175244 0.025413
v 0.067298 -0.187591 0.016514
v 0.075627 -0.183566 0.025027
v -0.036901 0.146340 0.016209
v 0.080525 -0.074283 -0.006333
v -0.036618 0.147057 0.003658
v 0.112117 -0.194455 -0.008915
v 0.109290 -0.196775 -0.006375
v 0.109106 -0.196811 -0.007766
v 0.124323 -0.171382 -0.015070
v 0.119482 -0.165720 -0.026706
v 0.124569 -0.163511 -0.016015
v 0.111475 -0.190937 0.010447
v 0.109931 -0.195037 0.003977
v 0.112213 -0.189068 -0.022309
v 0.113024 -0.183292 -0.027456
v 0.109044 -0.196968 -0.005006
v 0.112481 -0.194387 -0.006167
v 0.092675 -0.164131 0.030839
v 0.085970 -0.178311 0.029867
v 0.097080 -0.172457 0.030451
v 0.098856 -0.201443 -0.009612
v 0.097130 -0.200978 -0.014487
v 0.116573 -0.186963 -0.017853
v 0.118841 -0.180482 -0.021510
v 0.119919 -0.148168 -0.003362
v 0.124326 -0.156494 -0.003738
v -0.056564 0.137799 -0.025109
v 0.118110 -0.182333 0.010928
v -0.132350 0.189642 0.033541
v 0.079506 -0.189144 0.023478
v 0.049684 -0.089183 -0.037855
v -0.067459 0.132157 -0.027865
v 0.095468 -0.197892 -0.023189
v 0.084611 -0.198516 -0.023310
v 0.090682 -0.195064 -0.028631
v -0.092033 0.210520 0.043735
v -1.655192 3.185441 0.170172
v 0.102392 -0.200348 -0.008119
v 0.103040 -0.199951 -0.009300
v 0.098733 -0.201753 -0.004161
v 0.095058 -0.202594 -0.002984
v 0.110391 -0.193873 -0.016422
v 0.106827 -0.197012 -0.014321
v 0.107019 -0.195586 -0.018000
v 0.085759 -0.190977 -0.033117
v 0.080561 -0.200994 -0.015925
v 0.071646 -0.199608 -0.007384
v 0.073511 -0.198153 -0.017742
v 0.108513 -0.197068 -0.009012
v 0.116025 -0.188350 0.006460
v 0.103215 -0.158384 0.027096
v 0.116308 -0.161768 0.019091
v 0.111910 -0.153438 0.019475
v 0.098369 -0.201822 -0.006909
v 0.104376 -0.198302 -0.014450
v 0.086727 -0.203236 -0.007251
v 0.094520 -0.202696 -0.007045
v 0.106249 -0.198557 -0.002557
v 0.096921 -0.193886 0.018454
v 0.105960 -0.193945 0.012406
v 0.080856 -0.185723 -0.036473
v 0.090950 -0.180218 -0.040058
v 0.071527 -0.192998 0.015323
v 0.106473 -0.197906 0.001375
v 0.102875 -0.198817 0.005006
v 0.104023 -0.199198 0.001246
v 0.090918 -0.200479 -0.019202
v 0.101741 -0.200357 0.000178
v 0.103398 -0.197494 -0.018190
v 0.099963 -0.199367 -0.016970
v 0.102330 -0.200505 -0.005359
v 0.102145 -0.200541 -0.006750
v 0.104054 -0.181174 -0.035787
v 0.072529 -0.190459 -0.029174
v 0.066972 -0.193857 -0.019044
v 0.105187 -0.198759 -0.010569
v 0.117711 -0.149890 0.008897
v 0.058128 -0.180167 -0.018987
v 0.055920 -0.181888 -0.006727
v -0.137104 0.188746 -0.002330
v -1.708954 3.158723 0.131724
v 0.095239 -0.202134 -0.011040
v 0.087883 -0.202336 -0.013667
v 0.114837 -0.191810 -0.010010
v 0.113106 -0.192561 -0.013647
v 0.100984 -0.194883 -0.025148
v 0.106799 -0.191819 -0.024842
v 0.057571 -0.181577 0.005735
v 0.062883 -0.179269 0.016897
v 0.110946 -0.194964 -0.011376
v 0.109108 -0.195852 -0.013254
v 0.084568 -0.193994 0.019771
v 0.089415 -0.184108 0.028115
v 0.061988 -0.189898 0.005356
v 0.111502 -0.169575 -0.034861
v 0.101594 -0.174610 -0.039498
v 0.100058 -0.178501 0.028675
v 0.102699 -0.184606 0.024355
v 0.107616 -0.166712 0.026709
v 0.073041 -0.199344 0.003145
v 0.112795 -0.176733 -0.031696
v -0.040154 0.145727 -0.008337
v 0.110152 -0.172996 0.025090
v 0.106497 -0.196909 0.005197
v 0.119353 -0.185755 -0.012012
v 0.078413 -0.195155 -0.026679
v 0.077529 -0.197395 0.012576
v 0.080172 -0.201978 0.001335
v 0.079019 -0.202197 -0.007366
v 0.081561 -0.169987 0.030255
v 0.093310 -0.189553 0.023862
v 0.083881 -0.200367 0.009128
v 0.087591 -0.203073 -0.000730
v 0.094731 -0.199760 0.009567
v 0.089698 -0.197557 0.015074
v 0.119835 -0.173331 -0.024501
v 0.062534 -0.188493 -0.019363
v 0.077031 -0.179998 -0.037561
v 0.100145 -0.197009 0.012100
v 0.118480 -0.168259 0.017791
v 0.115375 -0.191707 -0.005949
v -0.083341 0.215464 0.036117
v 0.063930 -0.176618 -0.029564
v 0.068336 -0.184944 -0.029940
v -1.685529 3.168899 0.180948
v 0.027677 -0.103662 0.024890
v 0.072625 -0.171672 -0.037185
v 0.080242 -0.074999 0.006219
v -0.040968 0.143665 0.027804
v -1.703155 3.162269 0.121150
v -0.076985 0.220420 0.000831
v -0.095579 0.116525 -0.011251
v 0.038690 -0.095074 -0.036251
v 0.060579 -0.083541 -0.035100
vn 0.5096 0.1840 -0.8405
vn 0.6915 0.3932 -0.6060
vn 0.7384 0.2945 -0.6067
vn 0.5853 0.3429 -0.7347
vn 0.7766 0.4317 -0.4588
vn 0.5853 0.3429 -0.7348
vn 0.6915 0.3933 -0.6060
vn 0.0294 0.8011 -0.5978
vn 0.2001 0.8837 -0.4231
vn -0.8742 -0.4684 0.1275
vn -0.8664 -0.4487 -0.2191
vn -0.7766 -0.4317 0.4588
vn -0.5853 -0.3429 0.7347
vn -0.7541 -0.3748 -0.5393
vn -0.5508 -0.2557 -0.7945
vn -0.5509 -0.2557 -0.7945
vn 0.8838 0.4656 0.0465
vn 0.3091 0.9310 -0.1943
vn 0.3429 0.9374 0.0612
vn -0.2811 -0.1057 -0.9538
vn -0.1313 -0.0248 -0.9910
vn -0.6268 0.4556 -0.6321
vn -0.4106 0.5733 -0.7090
vn 0.8382 0.4570 -0.2977
vn 0.8842 0.3578 -0.3003
vn 0.1756 0.1369 -0.9749
vn 0.4613 0.2821 -0.8412
vn 0.1313 0.0248 0.9910
vn 0.0004 0.7280 0.6856
vn -0.2157 0.6101 0.7624
vn -0.6625 -0.3201 -0.6772
vn -0.4224 -0.1835 -0.8876
vn -0.1828 0.6934 -0.6970
vn 0.9935 0.1100 0.0288
vn 0.8688 0.3193 0.3786
vn 0.9367 0.0665 0.3439
vn 0.1727 -0.5456 -0.8201
vn 0.4654 -0.5669 -0.6797
vn 0.2608 -0.6747 -0.6905
vn 0.6176 -0.3782 0.6896
vn 0.4359 -0.6417 0.6311
vn 0.6300 -0.5358 0.5621
vn 0.6324 -0.7734 0.0433
vn 0.6648 -0.7218 0.1927
vn 0.5982 -0.7943 0.1057
vn 0.4674 -0.8831 -0.0398
vn 0.4452 -0.8928 0.0684
vn 0.4134 -0.9090 0.0535
vn 0.5379 -0.8423 0.0352
vn 0.5112 -0.8575 0.0588
vn 0.8487 -0.5287 -0.0110
vn 0.9072 -0.3534 -0.2282
vn 0.9376 -0.3477 0.0013
vn -0.6094 -0.7481 0.2625
vn -0.8275 -0.5591 -0.0503
vn -0.6519 -0.7561 -0.0578
vn 0.3088 -0.9468 0.0906
vn 0.3879 -0.9213 0.0275
vn 0.5468 -0.8236 0.1508
vn 0.4840 -0.8625 -0.1476
vn 0.5156 -0.8465 -0.1328
vn 0.9394 -0.1897 0.2857
vn 0.8969 -0.3795 0.2270
vn 0.9884 -0.1515 0.0136
vn 0.8106 -0.2684 0.5204
vn 0.4176 -0.8981 -0.1379
vn 0.3150 -0.9311 -0.1836
vn 0.3664 -0.9019 -0.2286
vn -0.0795 -0.1211 -0.9895
vn 0.4613 0.2822 -0.8412
vn 0.2256 0.0397 -0.9734
vn -0.8382 -0.4570 0.2977
vn -0.8266 0.2999 0.4763
vn -0.9354 0.2525 0.2477
vn 0.5508 0.2557 0.7945
vn 0.2811 0.1057 0.9538
vn 0.7192 -0.6885 0.0934
vn 0.8180 -0.5527 0.1594
vn 0.8228 0.4181 0.3850
vn 0.2977 0.9021 0.3126
vn -0.0225 -0.0570 0.9981
vn -0.3234 -0.2128 0.9220
vn -0.3233 -0.2128 0.9221
vn -0.1756 -0.1369 0.9749
vn -0.6557 0.3823 0.6511
vn -0.4613 -0.2821 0.8412
vn -0.9692 0.2461 -0.0078
vn -0.8838 -0.4656 -0.0464
vn 0.7541 0.3748 0.5393
vn 0.2828 -0.9265 0.2484
vn 0.0558 -0.9611 0.2705
vn 0.2046 -0.9642 0.1685
vn -0.0225 -0.0569 0.9981
vn -0.8742 -0.4684 0.1276
vn -0.4608 -0.2833 0.8411
vn -0.6364 -0.4872 0.5980
vn -0.4076 -0.3767 0.8318
vn 0.8664 0.4487 0.2191
vn 0.8742 0.4684 -0.1275
vn 0.8742 0.4684 -0.1276
vn 0.6357 -0.7651 -0.1025
vn 0.5624 -0.8262 -0.0344
vn 0.5574 -0.8271 -0.0723
vn 0.9517 -0.1584 -0.2629
vn 0.8146 0.0427 -0.5785
vn 0.9511 0.1019 -0.2916
vn 0.6165 -0.6708 0.4123
vn 0.5833 -0.7682 0.2640
vn 0.6360 -0.6211 -0.4578
vn 0.6559 -0.4701 -0.5906
vn 0.5556 -0.8315 0.0031
vn 0.6454 -0.7633 -0.0290
vn 0.1319 0.0236 0.9910
vn -0.1236 -0.2324 0.9647
vn 0.1815 -0.0716 0.9808
vn 0.2807 -0.9521 -0.1213
vn 0.2143 -0.9394 -0.2676
vn 0.7519 -0.5652 -0.3395
vn 0.8094 -0.3960 -0.4337
vn 0.8839 0.4654 0.0467
vn 0.9295 0.3664 0.0423
vn 0.3234 0.2128 -0.9220
vn 0.7901 -0.4448 0.4218
vn -0.6915 -0.3933 0.6060
vn -0.2587 -0.5853 0.7685
vn 0.0225 0.0570 -0.9981
vn 0.1913 -0.8555 -0.4812
vn -0.0934 -0.8716 -0.4812
vn 0.0667 -0.7805 -0.6215
vn 0.4224 0.1835 0.8876
vn 0.1787 0.8293 0.5294
vn 0.3734 -0.9240 -0.0824
vn 0.3913 -0.9131 -0.1148
vn 0.2776 -0.9604 0.0248
vn 0.1547 -0.9859 0.0638
vn 0.5964 -0.7347 -0.3234
vn 0.4941 -0.8335 -0.2472
vn 0.4992 -0.7840 -0.3689
vn -0.0612 -0.6731 -0.7370
vn -0.2002 -0.9369 -0.2865
vn -0.4320 -0.8998 -0.0610
vn -0.3829 -0.8616 -0.3331
vn 0.5411 -0.8342 -0.1067
vn 0.7373 -0.6020 0.3064
vn 0.4230 0.1823 0.8876
vn 0.7096 0.2219 0.6688
vn 0.6632 0.3189 0.6771
vn 0.2678 -0.9622 -0.0489
vn 0.4285 -0.8681 -0.2507
vn -0.0409 -0.9975 -0.0578
vn 0.1392 -0.9888 -0.0533
vn 0.4791 -0.8750 0.0702
vn 0.2313 -0.7495 0.6203
vn 0.4700 -0.7506 0.4644
vn -0.2219 -0.4941 -0.8406
vn 0.0489 -0.3464 -0.9368
vn -0.4729 -0.6888 0.5495
vn 0.4846 -0.8575 0.1728
vn 0.3799 -0.8771 0.2938
vn 0.4191 -0.8920 0.1694
vn 0.0704 -0.9242 -0.3753
vn 0.3580 -0.9230 0.1408
vn 0.3949 -0.8390 -0.3743
vn 0.2960 -0.8930 -0.3392
vn 0.3717 -0.9283 -0.0065
vn 0.3666 -0.9293 -0.0446
vn 0.4193 -0.4156 -0.8071
vn -0.4454 -0.6213 -0.6447
vn -0.5946 -0.7124 -0.3728
vn 0.4501 -0.8804 -0.1492
vn 0.8234 0.4170 0.3850
vn -0.8228 -0.4183 -0.3848
vn -0.8832 -0.4668 -0.0465
vn -0.8228 -0.4181 -0.3851
vn -0.9239 0.2814 -0.2591
vn 0.1599 -0.9727 -0.1684
vn -0.0102 -0.9736 -0.2282
vn 0.7244 -0.6753 -0.1386
vn 0.6746 -0.6969 -0.2434
vn 0.3378 -0.7756 -0.5332
vn 0.4923 -0.6942 -0.5251
vn -0.8375 -0.4582 0.2976
vn -0.6908 -0.3944 0.6059
vn 0.6044 -0.7787 -0.1684
vn 0.5552 -0.8025 -0.2187
vn -0.0925 -0.7524 0.6522
vn 0.0073 -0.4501 0.8929
vn -0.7822 -0.5506 0.2916
vn 0.6004 -0.0609 -0.7974
vn 0.3346 -0.1959 -0.9218
vn 0.2930 -0.2996 0.9080
vn 0.3838 -0.5058 0.7726
vn 0.4709 0.0861 0.8780
vn -0.3953 -0.8929 0.2155
vn 0.6489 -0.2989 -0.6997
vn 0.5640 -0.1519 0.8117
vn 0.4842 -0.8222 0.2993
vn 0.8257 -0.5331 -0.1843
vn -0.2542 -0.7829 -0.5679
vn -0.2774 -0.8417 0.4632
vn -0.2105 -0.9629 0.1688
vn -0.2409 -0.9687 -0.0607
vn -0.1750 -0.1381 0.9748
vn 0.1371 -0.6357 0.7597
vn -0.1127 -0.9204 0.3743
vn -0.0180 -0.9932 0.1154
vn 0.1717 -0.9051 0.3889
vn 0.0408 -0.8463 0.5312
vn 0.8338 -0.2096 -0.5107
vn -0.7670 -0.5121 -0.3867
vn -0.3689 -0.2788 -0.8867
vn 0.3155 -0.8320 0.4563
vn 0.7875 -0.0247 0.6158
vn 0.7400 -0.6723 -0.0217
vn 0.6626 0.3201 0.6772
vn -0.6626 -0.3200 -0.6772
vn -0.6075 -0.4146 -0.6775
vn -0.4436 0.4901 0.7504
vn -0.5853 -0.3429 0.7348
vn -0.4225 -0.1835 -0.8876
vn -0.8050 0.3541 -0.4760
s 1
f 1//1 2//2 3//3
f 4//4 5//5 6//6
f 7//7 8//8 9//9
f 10//10 11//11 12//11
f 13//12 14//13 15//12
f 16//14 17//15 18//16
f 11//11 16//14 12//11
f 19//17 20//18 21//19
f 22//20 18//16 17//15
f 23//21 24//22 25//23
f 3//3 26//24 27//25
f 28//26 8//8 29//27
f 30//28 31//29 32//30
f 33//31 24//22 34//32
f 28//26 25//23 35//33
f 36//34 37//35 38//36
f 39//37 40//38 41//39
f 42//40 43//41 44//42
f 45//43 46//44 47//45
f 48//46 49//47 50//48
f 48//46 51//49 52//50
f 53//51 54//52 55//53
f 56//54 57//55 58//56
f 50//48 59//57 60//58
f 46//44 61//59 47//45
f 48//46 62//60 63//61
f 64//62 36//34 38//36
f 65//63 66//64 64//62
f 67//65 65//63 64//62
f 68//66 69//67 70//68
f 52//50 47//45 61//59
f 71//26 72//69 73//21
f 74//70 75//71 71//26
f 76//72 77//73 78//74
f 79//75 80//76 81//76
f 82//77 53//51 83//78
f 84//79 21//19 85//80
f 86//81 87//82 88//83
f 89//84 90//85 91//86
f 76//72 92//87 93//88
f 94//89 95//75 79//75
f 96//90 97//91 98//92
f 86//81 80//76 99//93
f 100//94 13//12 15//12
f 101//95 102//96 103//97
f 104//98 105//99 106//100
f 107//101 108//102 109//103
f 110//104 111//105 112//106
f 46//44 113//107 114//108
f 115//109 40//38 116//110
f 117//111 118//112 45//43
f 119//113 120//114 121//115
f 122//116 123//117 69//67
f 124//118 116//110 125//119
f 27//25 126//120 127//121
f 6//6 128//122 4//4
f 113//107 129//123 44//42
f 130//124 90//85 77//73
f 131//125 120//114 103//97
f 128//122 132//126 133//126
f 134//127 135//128 136//129
f 137//130 138//131 31//29
f 48//46 139//132 140//133
f 141//134 98//92 142//135
f 143//136 144//137 145//138
f 135//128 146//139 136//129
f 147//140 148//141 149//142
f 150//143 107//101 109//103
f 65//63 151//144 83//78
f 152//145 153//146 154//147
f 142//135 155//148 141//134
f 48//46 117//111 51//49
f 62//60 156//149 144//137
f 142//135 157//150 158//151
f 48//46 52//50 159//152
f 160//153 161//154 43//41
f 48//46 150//143 109//103
f 162//155 72//69 163//156
f 144//137 63//61 62//60
f 103//97 164//157 131//125
f 165//158 166//159 167//160
f 134//127 123//117 168//161
f 49//47 169//162 50//48
f 134//127 170//163 171//164
f 48//46 172//165 173//166
f 163//156 174//167 39//37
f 175//168 149//142 176//169
f 68//66 156//149 177//170
f 37//35 126//120 178//171
f 179//172 57//55 180//173
f 181//174 92//87 182//175
f 183//176 157//150 184//177
f 49//47 165//158 167//160
f 124//118 185//178 186//179
f 187//180 40//38 188//181
f 189//182 102//96 190//183
f 167//160 96//90 169//162
f 191//184 63//61 192//185
f 193//186 194//187 131//125
f 180//173 195//188 189//182
f 75//71 196//189 197//190
f 186//179 107//101 191//184
f 42//40 198//191 199//192
f 173//166 122//116 139//132
f 119//113 200//193 152//145
f 201//194 58//56 148//141
f 163//156 75//71 197//190
f 186//179 192//185 143//136
f 202//195 40//38 174//167
f 106//100 5//5 203//5
f 140//133 122//116 69//67
f 48//46 173//166 139//132
f 48//46 177//170 62//60
f 204//196 153//146 200//193
f 124//118 143//136 115//109
f 48//46 68//66 177//170
f 156//149 171//164 170//163
f 199//192 160//153 43//41
f 47//45 117//111 45//43
f 1//1 111//105 196//189
f 205//197 113//107 161//154
f 171//164 69//67 123//117
f 206//198 125//119 54//52
f 175//168 146//139 207//199
f 208//200 56//54 201//194
f 209//201 148//141 210//202
f 146//139 163//156 39//37
f 48//46 63//61 150//143
f 103//97 211//203 101//95
f 200//193 198//191 204//196
f 212//204 198//191 194//187
f 134//127 41//39 187//180
f 48//46 109//103 108//102
f 149//142 58//56 176//169
f 112//106 66//64 110//104
f 110//104 55//53 54//52
f 59//57 96//90 98//92
f 154//147 37//35 178//171
f 48//46 159//152 49//47
f 48//46 50//48 60//58
f 57//55 176//169 58//56
f 213//205 214//206 97//91
f 48//46 140//133 68//66
f 48//46 108//102 117//111
f 127//121 112//106 27//25
f 215//207 160//153 216//208
f 198//191 120//114 194//187
f 48//46 60//58 172//165
f 38//36 67//65 64//62
f 116//110 217//209 125//119
f 216//208 97//91 215//207
f 207//199 147//140 149//142
f 170//163 188//181 145//138
f 213//205 201//194 209//201
f 218//210 175//168 176//169
f 214//206 210//202 157//150
f 160//153 193//186 216//208
f 118//112 82//77 45//43
f 98//92 214//206 142//135
f 115//109 145//138 188//181
f 147//140 168//161 184//177
f 196//189 174//167 197//190
f 39//37 136//129 146//139
f 56//54 102//96 195//188
f 67//65 204//196 42//40
f 175//168 219//211 162//155
f 205//197 220//212 166//159
f 216//208 208//200 213//205
f 221//213 37//35 153//146
f 21//19 182//175 32//30
f 205//197 61//59 114//108
f 129//123 42//40 44//42
f 155//148 183//176 122//116
f 107//101 222//214 118//112
f 210//202 184//177 157//150
f 112//106 3//3 27//25
f 164//157 193//186 131//125
f 173//166 141//134 155//148
f 113//107 43//41 161//154
f 166//159 215//207 96//90
f 184//177 123//117 183//176
f 110//104 125//119 217//209
f 83//78 55//53 65//63
f 202//195 111//105 217//209
f 60//58 141//134 172//165
f 83//78 46//44 82//77
f 52//50 165//158 159//152
f 223//215 85//80 138//131
f 170//163 144//137 156//149
f 218//210 224//216 225//217
f 89//84 32//30 226//218
f 227//219 87//82 14//13
f 185//178 53//51 222//214
f 228//220 225//217 224//216
f 229//98 230//89 94//89
f 33//31 182//175 231//221
f 132//126 22//20 133//126
f 232//24 9//9 20//18
f 78//74 77//73 32//30
f 90//85 226//218 32//30
f 32//30 31//29 138//131
f 138//131 85//80 21//19
f 21//19 20//18 35//33
f 9//9 8//8 35//33
f 35//33 25//23 24//22
f 24//22 231//221 35//33
f 182//175 92//87 32//30
f 77//73 90//85 32//30
f 32//30 138//131 21//19
f 20//18 9//9 35//33
f 35//33 231//221 182//175
f 92//87 78//74 32//30
f 219//211 73//21 72//69
f 1//1 74//70 2//2
f 4//4 203//5 5//5
f 7//7 29//27 8//8
f 10//10 100//94 11//11
f 13//12 227//219 14//13
f 16//14 233//14 17//15
f 11//11 233//14 16//14
f 19//17 232//24 20//18
f 22//20 234//20 18//16
f 23//21 34//32 24//22
f 3//3 2//2 26//24
f 28//26 35//33 8//8
f 30//28 137//130 31//29
f 33//31 231//221 24//22
f 28//26 23//21 25//23
f 36//34 127//121 37//35
f 39//37 174//167 40//38
f 42//40 199//192 43//41
f 45//43 82//77 46//44
f 53//51 206//198 54//52
f 56//54 195//188 57//55
f 50//48 169//162 59//57
f 46//44 114//108 61//59
f 64//62 66//64 36//34
f 65//63 55//53 66//64
f 67//65 129//123 65//63
f 68//66 140//133 69//67
f 52//50 51//49 47//45
f 71//26 75//71 72//69
f 74//70 1//1 75//71
f 76//72 130//124 77//73
f 79//75 95//75 80//76
f 82//77 222//214 53//51
f 84//79 19//17 21//19
f 86//81 99//93 87//82
f 89//84 226//218 90//85
f 76//72 78//74 92//87
f 94//89 230//89 95//75
f 96//90 215//207 97//91
f 86//81 81//76 80//76
f 100//94 10//10 13//12
f 101//95 190//183 102//96
f 104//98 229//98 105//99
f 107//101 118//112 108//102
f 110//104 217//209 111//105
f 46//44 151//144 113//107
f 115//109 188//181 40//38
f 117//111 108//102 118//112
f 119//113 211//203 120//114
f 122//116 183//176 123//117
f 124//118 115//109 116//110
f 27//25 26//24 126//120
f 6//6 235//122 128//122
f 113//107 151//144 129//123
f 130//124 91//86 90//85
f 131//125 194//187 120//114
f 128//122 235//122 132//126
f 134//127 168//161 135//128
f 137//130 223//215 138//131
f 141//134 59//57 98//92
f 143//136 192//185 144//137
f 135//128 207//199 146//139
f 147//140 210//202 148//141
f 150//143 191//184 107//101
f 65//63 129//123 151//144
f 152//145 200//193 153//146
f 142//135 158//151 155//148
f 62//60 177//170 156//149
f 142//135 214//206 157//150
f 160//153 220//212 161//154
f 162//155 219//211 72//69
f 144//137 192//185 63//61
f 103//97 102//96 164//157
f 165//158 205//197 166//159
f 134//127 171//164 123//117
f 49//47 167//160 169//162
f 134//127 187//180 170//163
f 163//156 197//190 174//167
f 175//168 207//199 149//142
f 68//66 70//68 156//149
f 37//35 127//121 126//120
f 179//172 218//210 57//55
f 181//174 93//88 92//87
f 183//176 158//151 157//150
f 49//47 159//152 165//158
f 124//118 206//198 185//178
f 187//180 41//39 40//38
f 189//182 195//188 102//96
f 167//160 166//159 96//90
f 191//184 150//143 63//61
f 193//186 212//204 194//187
f 180//173 57//55 195//188
f 75//71 1//1 196//189
f 186//179 185//178 107//101
f 42//40 204//196 198//191
f 173//166 155//148 122//116
f 119//113 121//115 200//193
f 201//194 56//54 58//56
f 163//156 72//69 75//71
f 186//179 191//184 192//185
f 202//195 116//110 40//38
f 106//100 105//99 5//5
f 140//133 139//132 122//116
f 204//196 221//213 153//146
f 124//118 186//179 143//136
f 156//149 70//68 171//164
f 199//192 212//204 160//153
f 47//45 51//49 117//111
f 1//1 3//3 111//105
f 205//197 114//108 113//107
f 171//164 70//68 69//67
f 206//198 124//118 125//119
f 175//168 162//155 146//139
f 208//200 164//157 56//54
f 209//201 201//194 148//141
f 146//139 162//155 163//156
f 103//97 120//114 211//203
f 200//193 121//115 198//191
f 212//204 199//192 198//191
f 134//127 136//129 41//39
f 149//142 148//141 58//56
f 112//106 36//34 66//64
f 110//104 66//64 55//53
f 59//57 169//162 96//90
f 154//147 153//146 37//35
f 57//55 218//210 176//169
f 213//205 209//201 214//206
f 127//121 36//34 112//106
f 215//207 220//212 160//153
f 198//191 121//115 120//114
f 38//36 221//213 67//65
f 116//110 202//195 217//209
f 216//208 213//205 97//91
f 207//199 135//128 147//140
f 170//163 187//180 188//181
f 213//205 208//200 201//194
f 218//210 225//217 175//168
f 214//206 209//201 210//202
f 160//153 212//204 193//186
f 118//112 222//214 82//77
f 98//92 97//91 214//206
f 115//109 143//136 145//138
f 147//140 135//128 168//161
f 196//189 202//195 174//167
f 39//37 41//39 136//129
f 56//54 164//157 102//96
f 67//65 221//213 204//196
f 175//168 225//217 219//211
f 205//197 161//154 220//212
f 216//208 193//186 208//200
f 221//213 38//36 37//35
f 21//19 35//33 182//175
f 205//197 165//158 61//59
f 129//123 67//65 42//40
f 155//148 158//151 183//176
f 107//101 185//178 222//214
f 210//202 147//140 184//177
f 112//106 111//105 3//3
f 164//157 208//200 193//186
f 173//166 172//165 141//134
f 113//107 44//42 43//41
f 166//159 220//212 215//207
f 184//177 168//161 123//117
f 110//104 54//52 125//119
f 83//78 53//51 55//53
f 202//195 196//189 111//105
f 60//58 59//57 141//134
f 83//78 151//144 46//44
f 52//50 61//59 165//158
f 223//215 84//79 85//80
f 170//163 145//138 144//137
f 218//210 179//172 224//216
f 89//84 30//28 32//30
f 227//219 88//83 87//82
f 185//178 206//198 53//51
f 228//220 219//211 225//217
f 229//98 104//98 230//89
f 33//31 181//174 182//175
f 132//126 234//20 22//20
f 232//24 7//7 9//9
f 219//211 228//220 73//21
